<svg xmlns="http://www.w3.org/2000/svg" viewBox="0 0 512 512" role="img" aria-label="LinkNest icon">
  <defs>
    <linearGradient id="bg" x1="0" y1="512" x2="512" y2="0" gradientUnits="userSpaceOnUse">
      <stop offset="0" stop-color="#08b7ba"/>
      <stop offset="0.55" stop-color="#24be82"/>
      <stop offset="1" stop-color="#8ad22c"/>
    </linearGradient>
    <radialGradient id="glow" cx="22%" cy="16%" r="62%">
      <stop offset="0" stop-color="#ffffff" stop-opacity="0.12"/>
      <stop offset="1" stop-color="#ffffff" stop-opacity="0"/>
    </radialGradient>
  </defs>
  <rect width="512" height="512" fill="url(#bg)"/>
  <rect width="512" height="512" fill="url(#glow)"/>
  <path d="M82 282c0-33 23-55 52-55 31 0 62 17 122 55 60 38 91 55 122 55 29 0 52-22 52-55s-23-55-52-55c-31 0-62 17-122 55-60 38-91 55-122 55-29 0-52-22-52-55Z" fill="none" stroke="#fff" stroke-width="28" stroke-linecap="round" stroke-linejoin="round"/>
  <path d="M270 229c8-37 32-58 75-60-7 36-30 62-68 66-6 1-9-2-7-6Z" fill="#fff"/>
  <path d="M262 228c-23-31-46-44-68-42 6 29 28 49 63 49 6 0 9-3 5-7Z" fill="#fff" opacity="0.96"/>
</svg>
